<svg width="89" height="90" xmlns="http://www.w3.org/2000/svg" xmlns:xlink="http://www.w3.org/1999/xlink" overflow="hidden"><defs><clipPath id="clip0"><rect x="1012" y="315" width="89" height="90"/></clipPath><clipPath id="clip1"><rect x="1013" y="315" width="87" height="89"/></clipPath><clipPath id="clip2"><rect x="1013" y="315" width="87" height="89"/></clipPath><clipPath id="clip3"><rect x="699" y="315" width="401" height="89"/></clipPath></defs><g clip-path="url(#clip0)" transform="translate(-1012 -315)"><g clip-path="url(#clip1)"><g clip-path="url(#clip2)"><g clip-path="url(#clip3)"><path d="M372.472 87.0075C371.94 85.9448 371.94 84.2179 372.339 83.1552 372.737 82.0925 371.94 79.9672 370.479 78.2403 369.151 76.6463 367.955 74.9194 367.955 74.3881 367.955 72.9269 371.807 68.2776 371.94 69.8716 371.94 70.5358 371.276 71.8642 370.346 72.794 369.151 73.9896 369.416 75.0522 371.675 77.4433 373.401 79.303 374.464 81.9597 374.331 83.8194 373.933 87.5388 376.855 88.203 379.113 84.7493 380.176 82.8895 379.778 81.694 376.722 78.506 374.464 76.1149 373.269 73.7239 373.667 72.1299 374.331 69.8716 374.331 69.8716 374.464 72.2627 374.464 73.591 376.058 75.8493 377.918 77.3104 381.903 80.3657 382.301 85.6791 378.715 87.6716 375.128 89.5313 373.269 89.3985 372.472 87.0075Z" fill="#FFFFFF" transform="matrix(1.00083 0 0 -1 699.775 404)"/><path d="M360.118 81.8269C358.79 80.3657 358.922 79.0373 360.516 75.9821 362.243 72.5284 362.243 71.997 360.251 70.0045 359.055 68.6761 358.79 67.7463 359.587 67.7463 360.384 67.7463 361.712 68.6761 362.775 69.8716 364.103 71.4657 364.103 72.5284 362.907 74.5209 360.782 77.8418 360.915 81.9597 363.04 82.7567 363.97 83.2881 364.103 83.5537 363.173 83.5537 362.376 83.6866 360.915 82.8895 360.118 81.8269Z" fill="#FFFFFF" transform="matrix(1.00083 0 0 -1 699.775 404)"/><path d="M131.507 46.4925C131.507 22.5821 131.773 18.597 133.5 18.597 134.828 18.597 135.493 19.9254 135.493 22.8478L135.493 27.0985 139.61 23.1134C143.064 19.7925 144.658 19.2612 151.167 19.2612 164.185 19.2612 170.827 26.8328 169.764 40.3821 169.233 46.3597 168.303 48.7507 165.381 51.806 158.075 59.3776 147.315 60.1746 139.478 53.6657L135.493 50.2119 135.493 62.3C135.493 72.1299 135.094 74.3881 133.5 74.3881 131.773 74.3881 131.507 70.403 131.507 46.4925ZM161.396 50.0791C166.842 44.6328 168.303 38.1239 165.646 31.4821 162.99 25.2388 157.942 22.1836 150.503 22.1836 145.19 22.1836 143.861 22.7149 139.876 26.9657 136.157 31.0836 135.493 32.8104 135.493 38.3896 135.493 48.7507 141.072 54.197 151.964 54.3298 155.949 54.4627 157.942 53.5328 161.396 50.0791Z" fill="#FFFFFF" transform="matrix(1.00083 0 0 -1 699.775 404)"/><path d="M19.7925 45.5627C28.5597 20.3239 31.7478 14.6119 33.6075 20.8552 35.4672 27.3642 48.3522 63.2299 49.0164 64.0269 49.5478 64.5582 53.4 54.5955 57.7836 41.8433 65.0896 20.4567 67.4806 16.206 69.7388 19.9254 70.2701 20.7224 74.1224 31.6149 78.3731 44.2343 82.6239 56.7209 86.4761 68.1448 87.0075 69.4731 87.6716 70.9343 87.2731 71.7313 85.9448 71.7313 84.6164 71.7313 81.694 65.0896 76.5134 49.6806 72.3955 37.5925 69.0746 27.0985 69.0746 26.4343 69.0746 25.7701 68.6761 25.2388 68.0119 25.2388 67.4806 25.2388 63.894 34.6702 59.909 46.2269 55.9239 57.6507 52.2045 68.1448 51.5403 69.4731 50.2119 72.1299 47.9537 72.3955 47.1567 70.1373 40.9134 51.2746 31.3493 25.3716 30.8179 25.903 30.4194 26.3015 26.7 36.5299 22.5821 48.8836 17.4015 64.0269 14.3463 71.2 12.8851 71.4657 11.291 71.8642 12.7522 66.0194 19.7925 45.5627Z" fill="#FFFFFF" transform="matrix(1.00083 0 0 -1 699.775 404)"/><path d="M344.709 65.0896C335.809 64.0269 330.628 62.3 328.503 59.6433 327.175 57.9164 327.972 46.4925 329.964 40.2493 330.628 38.2567 329.831 37.4597 325.182 36.2642 321.994 35.3343 318.275 33.7403 316.813 32.6776 314.29 30.8179 314.29 30.5522 316.415 26.9657 317.743 24.8403 319.736 23.3791 321.064 23.5119 326.378 24.1761 339.927 20.7224 340.458 18.7299 340.99 17.1358 341.122 17.1358 341.255 19.1284 341.388 21.2537 342.185 21.5194 348.428 20.7224 352.281 20.191 361.978 20.4567 369.948 21.3866 378.051 22.1836 386.552 22.9806 388.943 23.1134 392.264 23.2463 393.991 24.1761 395.585 26.9657 397.71 30.5522 397.71 30.8179 395.319 32.5448 393.991 33.6075 392.131 34.6702 391.467 34.9358 390.537 35.2015 390.936 36.6627 392.264 38.5224 394.921 42.2418 395.187 50.6104 392.928 52.8687 391.999 53.7985 389.607 54.4627 387.615 54.4627 384.825 54.4627 383.896 55.1269 383.896 57.1194 383.896 60.8388 377.652 63.6284 366.228 65.0896 355.734 66.4179 356 66.4179 344.709 65.0896ZM378.449 60.5731C382.169 58.5806 382.567 57.9164 381.106 56.4552 379.512 54.8612 378.184 54.8612 372.604 56.5881 369.018 57.7836 364.103 59.6433 361.712 60.8388 357.86 62.8313 356.93 62.8313 350.288 60.706 346.303 59.5104 342.318 58.4478 341.255 58.4478 340.193 58.4478 337.669 57.5179 335.543 56.4552 330.894 54.0642 327.573 55.9239 330.761 58.9791 334.348 62.4328 341.919 63.6284 357.993 63.3627 370.213 62.9642 374.996 62.4328 378.449 60.5731ZM362.243 58.1821C367.69 53.0015 366.361 51.806 354.804 51.806 348.827 51.806 343.779 52.4701 343.381 53.1343 342.185 54.994 345.107 58.4478 347.631 58.4478 349.093 58.4478 348.694 57.6507 346.569 55.791L343.381 53.2672 348.163 55.5254C350.819 56.7209 352.812 58.1821 352.546 58.7134 351.882 59.6433 354.406 60.8388 357.196 60.9716 358.258 61.1045 360.516 59.7761 362.243 58.1821ZM340.06 50.4776C340.06 50.0791 345.904 49.8134 353.21 49.8134L366.361 49.8134 368.752 42.7731C371.542 34.4045 371.807 34.6702 358.125 30.5522 347.897 27.3642 347.764 27.3642 345.24 36.5299 342.052 48.6179 341.654 48.7507 341.521 37.991L341.388 27.497 338.599 30.0209C334.746 33.4746 329.433 44.8985 329.433 49.9463L329.433 54.0642 334.746 52.7358C337.669 51.9388 340.06 50.8761 340.06 50.4776ZM380.707 43.4373C379.113 37.991 376.988 34.6702 371.675 29.4896L364.634 22.5821 355.336 22.5821C347.366 22.5821 345.772 22.9806 344.31 25.3716 342.052 28.9582 343.381 30.2866 346.436 27.497 348.163 25.903 351.218 25.2388 356.133 25.2388 362.376 25.2388 363.837 25.7701 368.221 29.7552 372.604 33.8731 378.582 43.3045 378.582 46.3597 378.582 47.0239 376.191 47.2896 373.269 46.891 368.885 46.2269 367.955 46.4925 367.955 48.3522 367.955 49.5478 369.018 50.4776 370.346 50.6104 371.542 50.6104 374.73 51.4075 377.254 52.2045 383.099 54.197 383.497 53.1343 380.707 43.4373ZM391.069 51.009C393.725 48.4851 393.725 44.7657 391.201 39.9836 388.678 34.9358 376.191 28.9582 378.051 33.6075 378.316 34.5373 380.309 35.9985 382.434 36.7955 389.74 39.4522 393.061 49.1493 386.552 49.1493 385.091 49.1493 383.896 50.0791 383.896 51.1418 383.896 53.7985 388.412 53.6657 391.069 51.009ZM387.881 45.4299C387.881 44.1015 386.419 41.5776 384.56 39.8507 380.84 36.397 380.176 37.991 382.567 44.3672 384.028 48.3522 387.881 49.0164 387.881 45.4299ZM338.2 28.9582 344.576 22.1836 338.067 23.1134C318.142 25.7701 312.297 29.8881 323.057 33.6075 326.245 34.803 329.433 35.7328 330.23 35.7328 331.027 35.8657 334.613 32.8104 338.2 28.9582ZM394.522 29.6224C394.522 28.6925 392.928 27.2313 391.069 26.5672 386.287 24.7075 369.416 22.0507 368.487 22.9806 367.025 24.4418 375.128 30.4194 378.582 30.5522 380.442 30.5522 383.364 31.3493 385.224 32.2791 388.943 34.2716 394.522 32.6776 394.522 29.6224Z" fill="#FFFFFF" transform="matrix(1.00083 0 0 -1 699.775 404)"/><path d="M333.418 45.8284C333.418 44.6328 334.746 41.1791 336.473 38.1239L339.396 32.5448 339.794 39.0537C340.06 43.3045 339.661 45.9612 338.466 46.6254 335.676 48.3522 333.418 47.9537 333.418 45.8284Z" fill="#FFFFFF" transform="matrix(1.00083 0 0 -1 699.775 404)"/><path d="M357.727 41.1791C347.897 38.6552 346.569 37.5925 348.163 33.3418 349.093 30.9507 350.022 30.4194 352.413 31.2164 354.007 31.6149 357.993 32.8104 361.313 33.7403 367.291 35.3343 369.151 37.991 367.025 41.5776 366.096 43.0388 364.501 43.0388 357.727 41.1791Z" fill="#FFFFFF" transform="matrix(1.00083 0 0 -1 699.775 404)"/><path d="M99.8925 57.5179C94.9776 56.4552 87.9373 48.8836 87.0075 43.4373 84.3507 29.3567 93.1179 18.597 107.199 18.597 112.379 18.597 120.881 22.7149 120.881 25.2388 120.881 27.0985 119.287 26.8328 115.833 24.4418 109.058 19.6597 97.103 22.5821 91.9224 30.2866 89.6642 33.7403 89 33.4746 106.269 36.5299 122.873 39.4522 123.537 39.7179 123.537 42.2418 123.537 45.5627 118.888 52.603 115.169 55.1269 111.582 57.3851 104.675 58.5806 99.8925 57.5179ZM115.434 50.6104C122.74 43.703 121.412 42.2418 105.206 39.0537 97.3687 37.4597 90.594 36.397 90.1955 36.6627 89.6642 36.9284 89.797 39.4522 90.4612 42.109 92.9851 53.9313 106.933 58.5806 115.434 50.6104Z" fill="#FFFFFF" transform="matrix(1.00083 0 0 -1 699.775 404)"/><path d="M179.196 58.1821C179.196 57.9164 178.93 49.0164 178.664 38.2567 178.133 22.0507 178.399 18.597 179.86 18.597 181.321 18.597 181.852 21.7851 182.251 32.6776 182.649 46.6254 182.649 46.7582 187.033 50.6104 189.424 52.7358 192.479 54.4627 193.94 54.4627 196.597 54.4627 198.59 56.4552 196.996 57.5179 194.737 58.8463 188.494 56.7209 185.306 53.5328L181.985 50.0791 181.985 54.3298C181.985 56.5881 181.454 58.4478 180.657 58.4478 179.993 58.4478 179.328 58.3149 179.196 58.1821Z" fill="#FFFFFF" transform="matrix(1.00083 0 0 -1 699.775 404)"/><path d="M212.006 57.1194C191.948 50.7433 197.128 18.597 218.249 18.597 223.696 18.597 231.533 21.3866 233.127 23.9104 234.721 26.4343 232.728 27.0985 229.407 24.8403 226.485 22.9806 221.969 22.1836 215.46 22.4493 211.873 22.5821 202.442 30.8179 203.637 32.8104 204.169 33.6075 207.357 34.5373 210.81 35.0687 214.397 35.4672 221.57 36.7955 226.884 37.991 237.51 40.3821 238.307 41.4448 233.791 48.7507 229.142 56.4552 220.375 59.7761 212.006 57.1194ZM228.478 50.3448C234.721 44.1015 233.525 42.2418 221.172 39.8507 215.327 38.6552 208.951 37.194 206.958 36.7955 203.372 35.8657 203.239 35.9985 203.239 40.6478 203.239 44.3672 204.301 46.4925 207.755 49.9463 211.607 53.7985 213.201 54.4627 218.249 54.4627 223.297 54.4627 225.024 53.7985 228.478 50.3448Z" fill="#FFFFFF" transform="matrix(1.00083 0 0 -1 699.775 404)"/><path d="M237.112 56.1896C237.643 54.8612 241.097 45.8284 244.816 36.2642 248.403 26.5672 252.122 18.597 253.052 18.597 253.982 18.597 256.904 24.4418 259.694 31.4821 262.484 38.6552 265.539 46.3597 266.336 48.4851L267.93 52.4701 269.391 49.1493C270.321 47.2896 273.243 39.8507 276.166 32.5448 279.088 24.8403 282.143 19.2612 283.073 19.2612 284.136 19.2612 287.722 26.4343 291.84 37.194 299.013 55.791 299.678 58.4478 297.685 58.4478 297.021 58.4478 293.567 50.7433 290.113 41.1791 286.527 31.7478 283.339 23.9104 282.94 23.9104 282.542 23.9104 279.487 31.6149 276.166 40.9134 272.446 51.2746 269.391 57.7836 268.196 57.7836 267.133 57.7836 263.945 51.4075 260.225 41.4448 256.904 32.5448 253.849 24.8403 253.451 24.4418 253.052 24.0433 249.864 31.6149 246.41 41.1791 242.16 52.603 239.37 58.4478 238.175 58.4478 236.713 58.4478 236.448 57.7836 237.112 56.1896Z" fill="#FFFFFF" transform="matrix(1.00083 0 0 -1 699.775 404)"/><path d="M322.525 20.8552C323.588 19.6597 326.51 18.0657 329.167 17.1358 331.824 16.3388 334.746 15.0104 335.41 14.0806 336.207 13.2836 337.669 12.3537 338.731 12.0881 349.093 9.56418 352.413 9.16567 359.587 9.69701 364.103 10.0955 370.081 11.4239 372.87 12.8851 375.66 14.3463 380.176 16.206 382.833 17.1358 385.49 18.0657 388.412 19.6597 389.209 20.7224 391.334 23.1134 390.803 23.1134 384.693 19.9254 371.807 13.4164 342.849 12.7522 330.097 18.7299 326.51 20.4567 322.924 22.0507 322.127 22.4493 321.463 22.7149 321.596 22.0507 322.525 20.8552ZM365.298 11.9552C361.181 10.6269 351.218 10.6269 346.037 11.9552 343.381 12.6194 346.569 13.0179 355.336 13.0179 363.837 13.0179 367.424 12.6194 365.298 11.9552Z" fill="#FFFFFF" transform="matrix(1.00083 0 0 -1 699.775 404)"/><path d="M327.839 13.0179C323.588 11.5567 323.322 10.7597 325.979 7.30597 327.573 5.04776 328.37 4.91493 331.293 6.37612 337.669 9.29851 334.481 15.2761 327.839 13.0179Z" fill="#FFFFFF" transform="matrix(1.00083 0 0 -1 699.775 404)"/></g></g></g></g></svg>