<?xml version="1.0" standalone="no"?>
<!DOCTYPE svg PUBLIC "-//W3C//DTD SVG 20010904//EN"
 "http://www.w3.org/TR/2001/REC-SVG-20010904/DTD/svg10.dtd">
<svg version="1.0" xmlns="http://www.w3.org/2000/svg"
 width="300.000000pt" height="67.000000pt" viewBox="0 0 300.000000 67.000000"
 preserveAspectRatio="xMidYMid meet">
<metadata>
Created by potrace 1.10, written by Peter Selinger 2001-2011
</metadata>
<g transform="translate(0.000000,67.000000) scale(0.100000,-0.100000)"
fill="#fe6100" stroke="none">
<path d="M2804 655 c-4 -8 -4 -21 -1 -29 3 -8 -3 -24 -14 -37 -10 -12 -19 -25
-19 -29 0 -11 29 -46 30 -34 0 5 -5 15 -12 22 -9 9 -7 17 10 35 13 14 21 34
20 48 -3 28 19 33 36 7 8 -14 5 -23 -18 -47 -17 -18 -26 -36 -23 -48 5 -17 5
-17 6 1 0 10 12 27 26 38 30 23 33 63 6 78 -27 14 -41 13 -47 -5z"/>
<path d="M2711 616 c-10 -11 -9 -21 3 -44 13 -26 13 -30 -2 -45 -9 -10 -11
-17 -5 -17 6 0 16 7 24 16 10 12 10 20 1 35 -16 25 -15 56 1 62 7 4 8 6 1 6
-6 1 -17 -5 -23 -13z"/>
<path d="M990 350 c0 -180 2 -210 15 -210 10 0 15 10 15 32 l0 32 31 -30 c26
-25 38 -29 87 -29 98 0 148 57 140 159 -4 45 -11 63 -33 86 -55 57 -136 63
-195 14 l-30 -26 0 91 c0 74 -3 91 -15 91 -13 0 -15 -30 -15 -210z m225 27
c41 -41 52 -90 32 -140 -20 -47 -58 -70 -114 -70 -40 0 -50 4 -80 36 -28 31
-33 44 -33 86 0 78 42 119 124 120 30 1 45 -6 71 -32z"/>
<path d="M149 343 c66 -190 90 -233 104 -186 14 49 111 319 116 325 4 4 33
-71 66 -167 55 -161 73 -193 90 -165 4 6 33 88 65 183 32 94 61 180 65 190 5
11 2 17 -8 17 -10 0 -32 -50 -71 -166 -31 -91 -56 -170 -56 -175 0 -5 -3 -9
-8 -9 -4 0 -31 71 -61 158 -30 86 -58 165 -63 175 -10 20 -27 22 -33 5 -47
-142 -119 -337 -123 -333 -3 3 -31 80 -62 173 -39 114 -62 168 -73 170 -12 3
-1 -41 52 -195z"/>
<path d="M2595 490 c-67 -8 -106 -21 -122 -41 -10 -13 -4 -99 11 -146 5 -15
-1 -21 -36 -30 -24 -7 -52 -19 -63 -27 -19 -14 -19 -16 -3 -43 10 -16 25 -27
35 -26 40 5 142 -21 146 -36 4 -12 5 -12 6 3 1 16 7 18 54 12 29 -4 102 -2
162 5 61 6 125 12 143 13 25 1 38 8 50 29 16 27 16 29 -2 42 -10 8 -24 16 -29
18 -7 2 -4 13 6 27 20 28 22 91 5 108 -7 7 -25 12 -40 12 -21 0 -28 5 -28 20
0 28 -47 49 -133 60 -79 10 -77 10 -162 0z m254 -34 c28 -15 31 -20 20 -31
-12 -12 -22 -12 -64 1 -27 9 -64 23 -82 32 -29 15 -36 15 -86 -1 -30 -9 -60
-17 -68 -17 -8 0 -27 -7 -43 -15 -35 -18 -60 -4 -36 19 27 26 84 35 205 33 92
-3 128 -7 154 -21z m-122 -18 c41 -39 31 -48 -56 -48 -45 0 -83 5 -86 10 -9
14 13 40 32 40 11 0 8 -6 -8 -20 l-24 -19 36 17 c20 9 35 20 33 24 -5 7 14 16
35 17 8 1 25 -9 38 -21z m-167 -58 c0 -3 44 -5 99 -5 l99 0 18 -53 c21 -63 23
-61 -80 -92 -77 -24 -78 -24 -97 45 -24 91 -27 92 -28 11 l-1 -79 -21 19 c-29
26 -69 112 -69 150 l0 31 40 -10 c22 -6 40 -14 40 -17z m306 -53 c-12 -41 -28
-66 -68 -105 l-53 -52 -70 0 c-60 0 -72 3 -83 21 -17 27 -7 37 16 16 13 -12
36 -17 73 -17 47 0 58 4 91 34 33 31 78 102 78 125 0 5 -18 7 -40 4 -33 -5
-40 -3 -40 11 0 9 8 16 18 17 9 0 33 6 52 12 44 15 47 7 26 -66z m78 57 c20
-19 20 -47 1 -83 -19 -38 -113 -83 -99 -48 2 7 17 18 33 24 55 20 80 93 31 93
-11 0 -20 7 -20 15 0 20 34 19 54 -1z m-24 -42 c0 -10 -11 -29 -25 -42 -28
-26 -33 -14 -15 34 11 30 40 35 40 8z m-374 -124 l48 -51 -49 7 c-150 20 -194
51 -113 79 24 9 48 16 54 16 6 1 33 -22 60 -51z m424 5 c0 -7 -12 -18 -26 -23
-36 -14 -163 -34 -170 -27 -11 11 50 56 76 57 14 0 36 6 50 13 28 15 70 3 70
-20z"/>
<path d="M2510 345 c0 -9 10 -35 23 -58 l22 -42 3 49 c2 32 -1 52 -10 57 -21
13 -38 10 -38 -6z"/>
<path d="M2693 310 c-74 -19 -84 -27 -72 -59 7 -18 14 -22 32 -16 12 3 42 12
67 19 45 12 59 32 43 59 -7 11 -19 11 -70 -3z"/>
<path d="M752 433 c-37 -8 -90 -65 -97 -106 -20 -106 46 -187 152 -187 39 0
103 31 103 50 0 14 -12 12 -38 -6 -51 -36 -141 -14 -180 44 -17 26 -22 24 108
47 125 22 130 24 130 43 0 25 -35 78 -63 97 -27 17 -79 26 -115 18z m117 -52
c55 -52 45 -63 -77 -87 -59 -12 -110 -20 -113 -18 -4 2 -3 21 2 41 19 89 124
124 188 64z"/>
<path d="M1349 438 c0 -2 -2 -69 -4 -150 -4 -122 -2 -148 9 -148 11 0 15 24
18 106 3 105 3 106 36 135 18 16 41 29 52 29 20 0 35 15 23 23 -17 10 -64 -6
-88 -30 l-25 -26 0 32 c0 17 -4 31 -10 31 -5 0 -10 -1 -11 -2z"/>
<path d="M1596 430 c-151 -48 -112 -290 47 -290 41 0 100 21 112 40 12 19 -3
24 -28 7 -22 -14 -56 -20 -105 -18 -27 1 -98 63 -89 78 4 6 28 13 54 17 27 3
81 13 121 22 80 18 86 26 52 81 -35 58 -101 83 -164 63z m124 -51 c47 -47 38
-61 -55 -79 -44 -9 -92 -20 -107 -23 -27 -7 -28 -6 -28 29 0 28 8 44 34 70 29
29 41 34 79 34 38 0 51 -5 77 -31z"/>
<path d="M1785 423 c4 -10 30 -78 58 -150 27 -73 55 -133 62 -133 7 0 29 44
50 97 21 54 44 112 50 128 l12 30 11 -25 c7 -14 29 -70 51 -125 22 -58 45
-100 52 -100 8 0 35 54 66 135 54 140 59 160 44 160 -5 0 -31 -58 -57 -130
-27 -71 -51 -130 -54 -130 -3 0 -26 58 -51 128 -28 78 -51 127 -60 127 -8 0
-32 -48 -60 -123 -25 -67 -48 -125 -51 -128 -3 -3 -27 54 -53 126 -32 86 -53
130 -62 130 -11 0 -13 -5 -8 -17z"/>
<path d="M2428 157 c8 -9 30 -21 50 -28 20 -6 42 -16 47 -23 6 -6 17 -13 25
-15 78 -19 103 -22 157 -18 34 3 79 13 100 24 21 11 55 25 75 32 20 7 42 19
48 27 16 18 12 18 -34 -6 -97 -49 -315 -54 -411 -9 -27 13 -54 25 -60 28 -5 2
-4 -3 3 -12z m322 -67 c-31 -10 -106 -10 -145 0 -20 5 4 8 70 8 64 0 91 -3 75
-8z"/>
<path d="M2468 98 c-32 -11 -34 -17 -14 -43 12 -17 18 -18 40 -7 48 22 24 67
-26 50z"/>
</g>
</svg>
